<svg width="20" height="20" viewBox="0 0 20 20" fill="none" xmlns="http://www.w3.org/2000/svg">
<g clip-path="url(#clip0)">
<path d="M2.92892 2.92892C4.81766 1.04019 7.32895 0 10 0C12.6712 0 15.1823 1.04019 17.0711 2.92892C18.9598 4.81766 20 7.3288 20 10C20 12.6711 18.9598 15.1823 17.0711 17.0711C15.1823 18.9598 12.6712 20 10 20C7.32895 20 4.81766 18.9598 2.92892 17.0711C1.04019 15.1823 0 12.6711 0 10C0 7.3288 1.04019 4.81766 2.92892 2.92892ZM14.9867 17.2807C14.5685 14.8726 12.4817 13.0963 10 13.0963C7.51816 13.0963 5.43152 14.8726 5.01328 17.2807C6.43311 18.2562 8.15094 18.8281 10 18.8281C11.8491 18.8281 13.5669 18.2562 14.9867 17.2807ZM13.1796 8.74481C13.1796 6.99142 11.7532 5.56519 10 5.56519C8.24677 5.56519 6.82037 6.99158 6.82037 8.74481C6.82037 10.498 8.24677 11.9244 10 11.9244C11.7532 11.9244 13.1796 10.498 13.1796 8.74481ZM3.99826 16.4679C4.31366 15.3468 4.94003 14.3297 5.81802 13.5352C6.35666 13.0476 6.96976 12.663 7.62894 12.3918C6.43753 11.6147 5.64835 10.2702 5.64835 8.74481C5.64835 6.34537 7.60056 4.39331 10 4.39331C12.3994 4.39331 14.3515 6.34537 14.3515 8.74481C14.3515 10.2702 13.5623 11.6147 12.3711 12.3918C13.0301 12.663 13.6433 13.0475 14.182 13.535C15.0598 14.3295 15.6863 15.3467 16.0017 16.4677C17.739 14.8544 18.8281 12.5522 18.8281 10C18.8281 5.13214 14.8679 1.17188 10 1.17188C5.13214 1.17188 1.17188 5.13214 1.17188 10C1.17188 12.5523 2.26105 14.8546 3.99826 16.4679Z" fill="black" fill-opacity="0.62"/>
</g>
<defs>
<clipPath id="clip0">
<rect width="20" height="20" fill="white" transform="matrix(-1 0 0 1 20 0)"/>
</clipPath>
</defs>
</svg>
